<svg width="175" height="30" viewBox="0 0 175 30" fill="#201070" xmlns="http://www.w3.org/2000/svg">
<path d="M48.4104 0C49.0694 0 49.6358 0.236994 50.1098 0.710983C50.5838 1.18497 50.8208 1.75144 50.8208 2.4104C50.8208 3.04624 50.5838 3.61272 50.1098 4.10983C49.6474 4.59538 49.0809 4.83815 48.4104 4.83815C47.763 4.83815 47.1965 4.59538 46.711 4.10983C46.237 3.61272 46 3.04624 46 2.4104C46 1.73988 46.2428 1.17341 46.7283 0.710983C47.2139 0.236994 47.7746 0 48.4104 0ZM50.5434 7.49133V23.6879H46.2775V7.49133H50.5434Z"/>
<path d="M59.3873 3.19075H59.7341V7.49133H65.2832V10.7168H59.7341V18.1907C59.7341 18.9191 59.9538 19.5087 60.3931 19.9595C60.8324 20.4104 61.4335 20.6358 62.1965 20.6358C63.1907 20.6358 64.3353 20.2775 65.6301 19.5607V22.9769C64.0925 23.659 62.6474 24 61.2948 24C59.4682 24 58.0405 23.5029 57.0116 22.5087C55.9942 21.5144 55.4855 20.1676 55.4855 18.4682V10.7168H52.9538V10.0231L59.3873 3.19075Z"/>
<path d="M75.3064 7.17919C77.6879 7.17919 79.5722 7.9422 80.9595 9.46821C82.3468 10.9942 83.0405 13.104 83.0405 15.7977V16.4393H71.578C71.7514 17.8844 72.289 19 73.1907 19.7861C74.104 20.5607 75.3526 20.948 76.9364 20.948C77.9537 20.948 78.9306 20.7746 79.867 20.4277C80.815 20.0694 81.7919 19.5318 82.7977 18.815V21.9884C80.9017 23.3295 78.6011 24 75.8959 24C73.341 24 71.2543 23.2312 69.6358 21.6936C68.0173 20.1561 67.2081 18.1098 67.2081 15.5549C67.2081 13.0925 67.9538 11.0809 69.4451 9.52023C70.948 7.95954 72.9017 7.17919 75.3064 7.17919ZM79.0347 13.8555C78.9191 12.6763 78.5607 11.7572 77.9595 11.0983C77.3584 10.4277 76.5318 10.0925 75.4798 10.0925C74.4046 10.0925 73.5376 10.4104 72.8786 11.0462C72.2312 11.6821 71.8208 12.6185 71.6474 13.8555H79.0347Z"/>
<path d="M95.7861 7.17919C97.0347 7.17919 98.0867 7.47399 98.9422 8.06358C99.8092 8.64162 100.457 9.42196 100.884 10.4046C101.798 9.28324 102.705 8.46821 103.607 7.95954C104.52 7.43931 105.52 7.17919 106.607 7.17919C108.318 7.17919 109.699 7.73988 110.751 8.86127C111.803 9.9711 112.329 11.4566 112.329 13.3179V23.6879H108.064V14.0289C108.064 12.9075 107.821 12.0231 107.335 11.3757C106.861 10.7283 106.168 10.4046 105.254 10.4046C103.948 10.4046 102.694 11.2428 101.491 12.9191V23.6879H97.2428V13.9595C97.2428 12.8497 96.9884 11.9827 96.4798 11.3584C95.9711 10.7225 95.289 10.4046 94.4335 10.4046C93.7399 10.4046 93.104 10.6069 92.526 11.0116C91.948 11.4046 91.3295 12.0405 90.6705 12.9191V23.6879H86.4046V7.49133H90.6705V9.763C91.4451 8.88439 92.2312 8.23699 93.0289 7.82081C93.8266 7.39306 94.7457 7.17919 95.7861 7.17919Z"/>
<path d="M139.486 7.7341L132.601 24H131.786L126.879 11.0462L121.936 24H121.156L114.341 7.7341H116.006L121.451 20.7399L126.445 7.7341H127.381L132.237 20.7399L137.786 7.7341H139.486Z"/>
<path d="M143.682 7.7341V23.6879H141.965V7.7341H143.682Z"/>
<path d="M157.156 8.77456V10.6127C155.538 9.52601 154.081 8.98266 152.786 8.98266C151.827 8.98266 151.017 9.24277 150.358 9.763C149.699 10.2832 149.37 10.9249 149.37 11.6879C149.37 12.2312 149.566 12.7341 149.96 13.1965C150.364 13.6474 151.468 14.2197 153.272 14.9133C155.087 15.6069 156.272 16.3295 156.827 17.0809C157.381 17.8324 157.659 18.6705 157.659 19.5954C157.659 20.8324 157.156 21.8786 156.15 22.7341C155.144 23.578 153.902 24 152.422 24C150.815 24 149.22 23.5144 147.636 22.5433V20.8786C149.52 21.8497 151.191 22.3353 152.647 22.3353C153.63 22.3353 154.433 22.0751 155.058 21.5549C155.694 21.0347 156.012 20.3699 156.012 19.5607C156.012 19.0058 155.803 18.4971 155.387 18.0347C154.983 17.5607 153.873 16.9653 152.058 16.2486C150.254 15.5318 149.081 14.8266 148.538 14.1329C148.006 13.4277 147.74 12.6474 147.74 11.7919C147.74 10.578 148.237 9.54913 149.231 8.7052C150.237 7.84971 151.457 7.42196 152.89 7.42196C154.197 7.42196 155.618 7.87283 157.156 8.77456Z"/>
<path d="M174.566 15.1214H161.994C161.96 15.3988 161.942 15.6763 161.942 15.9538C161.942 17.7341 162.578 19.2428 163.85 20.4798C165.121 21.7168 166.624 22.3353 168.358 22.3353C170.381 22.3353 172.358 21.5433 174.289 19.9595V21.8844C172.462 23.2948 170.416 24 168.15 24C165.85 24 163.948 23.2023 162.445 21.6069C160.942 20.0116 160.191 17.9827 160.191 15.5202C160.191 13.185 160.884 11.2543 162.272 9.72832C163.659 8.19075 165.405 7.42196 167.509 7.42196C169.486 7.42196 171.156 8.11561 172.52 9.50289C173.884 10.8786 174.566 12.7514 174.566 15.1214ZM162.22 13.7514H172.555C171.954 10.6416 170.272 9.0867 167.509 9.0867C166.202 9.0867 165.069 9.49711 164.11 10.3179C163.162 11.1272 162.532 12.2717 162.22 13.7514Z"/>
<path fill-rule="evenodd" clip-rule="evenodd" d="M14.4148 0.106118C14.7921 -0.0353727 15.2079 -0.0353727 15.5852 0.106118L28.9185 5.10612C29.569 5.35006 30 5.97192 30 6.66667V23.3333C30 24.0281 29.569 24.6499 28.9185 24.8939L15.5852 29.8939C15.2079 30.0354 14.7921 30.0354 14.4148 29.8939L1.08146 24.8939C0.430955 24.6499 0 24.0281 0 23.3333V6.66667C0 5.97192 0.430955 5.35006 1.08146 5.10612L14.4148 0.106118ZM3.33333 9.07167L13.3333 12.8217V25.9283L3.33333 22.1783V9.07167ZM16.6667 25.9283L26.6667 22.1783V9.07167L16.6667 12.8217V25.9283ZM15 9.88666L23.5867 6.66667L15 3.44667L6.41333 6.66667L15 9.88666Z"/>
</svg>
