<svg width="284" height="34" viewBox="0 0 284 34" fill="#201070" xmlns="http://www.w3.org/2000/svg">
<path d="M33.5859 8.34375H21.6797V32.9297H11.9062V8.34375H0V0.445312H33.5859V8.34375Z"/>
<path d="M70.7812 32.9297H60.2578L57.7031 27.1641C56.7656 25.0547 55.9219 23.5156 55.1719 22.5469C54.4219 21.5625 53.6875 20.9375 52.9688 20.6719C52.2656 20.3906 51.3516 20.25 50.2266 20.25H49.125V32.9297H39.3281V0.445312H55.9922C58.6797 0.445312 60.8828 0.992188 62.6016 2.08594C64.3203 3.17969 65.5547 4.50781 66.3047 6.07031C67.0703 7.63281 67.4531 9.11719 67.4531 10.5234C67.4531 12.1641 67.1328 13.5547 66.4922 14.6953C65.8672 15.8203 65.2031 16.6406 64.5 17.1562C63.7969 17.6719 63.0078 18.1641 62.1328 18.6328C63.1797 19.2422 64.0391 19.9688 64.7109 20.8125C65.3984 21.6406 66.3281 23.3281 67.5 25.875L70.7812 32.9297ZM57.4688 10.7109C57.4688 9.21094 56.9766 8.16406 55.9922 7.57031C55.0078 6.97656 53.4062 6.67969 51.1875 6.67969H49.125V14.5078H51.2344C53.625 14.5078 55.2578 14.25 56.1328 13.7344C57.0234 13.2031 57.4688 12.1953 57.4688 10.7109Z"/>
<path d="M110.906 32.9297H100.875L98.2266 26.3438H84.1172L81.4219 32.9297H71.3906L85.7578 0.445312H96.5859L110.906 32.9297ZM95.9766 20.6953L91.2188 8.83594L86.4141 20.6953H95.9766Z"/>
<path d="M143.602 30.4922C142.258 31.1953 140.883 31.7578 139.477 32.1797C138.07 32.6016 136.648 32.8984 135.211 33.0703C133.789 33.2578 132.312 33.3516 130.781 33.3516C127.953 33.3516 125.414 32.9609 123.164 32.1797C120.93 31.3984 118.984 30.25 117.328 28.7344C115.688 27.2031 114.453 25.4219 113.625 23.3906C112.812 21.3438 112.406 19.1016 112.406 16.6641C112.406 13.8672 112.891 11.4219 113.859 9.32812C114.828 7.21875 116.18 5.46875 117.914 4.07812C119.664 2.6875 121.648 1.66406 123.867 1.00781C126.102 0.335938 128.453 0 130.922 0C134.609 0 138.789 0.820312 143.461 2.46094V11.0859C141.852 10.0859 140.258 9.25781 138.68 8.60156C137.117 7.92969 135.273 7.59375 133.148 7.59375C131.258 7.59375 129.492 7.96875 127.852 8.71875C126.211 9.46875 124.891 10.5391 123.891 11.9297C122.891 13.3203 122.391 14.9453 122.391 16.8047C122.391 18.4453 122.828 19.9531 123.703 21.3281C124.578 22.6875 125.789 23.7734 127.336 24.5859C128.898 25.3828 130.656 25.7812 132.609 25.7812C134.188 25.7812 135.68 25.5938 137.086 25.2188C138.492 24.8281 139.672 24.3984 140.625 23.9297C141.594 23.4609 142.586 22.9062 143.602 22.2656V30.4922Z"/>
<path d="M184.359 32.9297H172.406L159.984 17.7188V32.9297H150.188V0.445312H159.984V14.9766L171.75 0.445312H182.391L170.297 15.6562L184.359 32.9297Z"/>
<path d="M212.484 0.1875H215.016V18.0469C215.016 22.9375 213.742 26.7109 211.195 29.3672C208.648 32.0234 205.352 33.3516 201.305 33.3516C197.273 33.3516 193.984 32.0391 191.438 29.4141C188.891 26.7891 187.617 23.1953 187.617 18.6328V0.1875H190.172V18.5391C190.172 22.4453 191.203 25.5 193.266 27.7031C195.344 29.9062 198.023 31.0078 201.305 31.0078C204.617 31.0078 207.305 29.8984 209.367 27.6797C211.445 25.4453 212.484 22.2812 212.484 18.1875V0.1875Z"/>
<path d="M224.344 0.1875V32.9297H221.812V0.1875H224.344Z"/>
<path d="M255.352 0.1875V2.29688H243.07V32.9297H240.516V2.29688H228.234V0.1875H255.352Z"/>
<path d="M283.547 0.1875L270.82 15.3516V32.9297H268.289V15.3516L255.562 0.1875H258.633L269.578 13.1484L280.477 0.1875H283.547Z"/>
</svg>
